<svg width="100" height="15" fill="none" xmlns="http://www.w3.org/2000/svg"><path d="M82.775 11.445h-.077L79.41.448h-5.304v13.864h3.514l-.198-11.377h.077l3.53 11.377h5.09V.447h-3.537l.193 10.998zM15.3.447l-2.646 14.01h3.86l1.957-12.716h.082l1.904 12.717h3.838L21.662.448H15.3zM36.896.45l-1.765 10.71h-.08L33.295.449h-5.829l-.316 14.009h3.573l.09-12.599h.08l2.388 12.599h3.624l2.388-12.595.08-.004.092 12.599h3.575L42.725.448h-5.829zM3.8 4.05a1.754 1.754 0 01-.015-.73c.103-.45.412-.944 1.307-.944.838 0 1.326.509 1.326 1.269v.865h3.569v-.978C9.987.477 7.19 0 5.167 0 2.625 0 .551.827.17 3.113a4.705 4.705 0 00.034 1.886c.621 2.863 5.698 3.693 6.435 5.503.138.338.093.776.025 1.04-.115.459-.437.936-1.39.936-.893 0-1.438-.502-1.438-1.266l-.002-1.36H.002L0 10.936C0 14.06 2.508 15 5.194 15c2.59 0 4.712-.858 5.055-3.197.175-1.213.046-2.008-.015-2.305C9.629 6.564 4.208 5.696 3.8 4.051zm46.497.033a1.7 1.7 0 01-.017-.718c.1-.447.406-.935 1.293-.935.828 0 1.315.501 1.315 1.25v.86h3.53v-.969c0-3.019-2.77-3.494-4.768-3.494-2.519 0-4.575.809-4.949 3.08-.104.611-.12 1.17.033 1.869.615 2.833 5.641 3.656 6.372 5.448.134.337.093.768.028 1.03-.116.462-.438.924-1.378.924-.888 0-1.423-.494-1.423-1.25l-.003-1.35h-3.798v1.074c0 3.094 2.487 4.022 5.147 4.022 2.557 0 4.661-.85 4.998-3.165.173-1.197.046-1.985-.015-2.28-.599-2.904-5.968-3.767-6.365-5.396zm16.207 6.725c.003.178-.002.384-.033.534-.07.348-.377 1.008-1.37 1.008-.99 0-1.3-.66-1.37-1.008a2.836 2.836 0 01-.037-.534V.446h-3.612v10.041c-.005.26.02.786.033.926.246 2.612 2.357 3.455 4.985 3.455 2.625 0 4.736-.843 4.989-3.455.013-.14.04-.666.036-.926V.447h-3.621v10.362zM94.942 6.58v2.052h1.463v2.032c.004.176-.003.372-.033.532-.064.377-.429 1.013-1.46 1.013-1.033 0-1.396-.637-1.463-1.013a2.881 2.881 0 01-.032-.532v-6.41c0-.228.015-.477.058-.658.076-.345.384-1.017 1.424-1.017 1.093 0 1.363.71 1.428 1.017.042.195.045.53.045.528v.79h3.602v-.469c-.002 0 .013-.478-.03-.916C99.68.896 97.46.066 94.929.066c-2.532 0-4.7.836-5.015 3.464-.03.227-.062.667-.062.916l-.002 5.895c.002.264.01.459.05.925.236 2.551 2.497 3.465 5.026 3.465 2.531 0 4.793-.914 5.03-3.465.039-.467.044-.662.045-.925V6.58h-5.058z" fill="#1428A0"/></svg>