<svg width="80" height="24" fill="none" xmlns="http://www.w3.org/2000/svg"><path fill-rule="evenodd" clip-rule="evenodd" d="M68.12 6.64c1.238 1.363 1.857 3.146 1.857 5.347v11.34h-7.11V13.53c0-.742-.213-1.346-.637-1.812a2.063 2.063 0 00-1.593-.7c-.754 0-1.367.293-1.84.88-.47.585-.707 1.357-.707 2.314v9.116h-7.11V13.53c0-.742-.219-1.346-.655-1.812-.437-.467-.985-.7-1.645-.7-.755 0-1.357.293-1.805.88-.448.585-.672 1.357-.672 2.314v9.116h-7.11V5.132h7.11v1.902c1.25-1.627 2.984-2.44 5.2-2.44 2.713 0 4.635 1.077 5.767 3.23 1.463-2.153 3.503-3.23 6.12-3.23 1.982 0 3.592.682 4.83 2.046zM36.192 23.328h-7.111v-1.472c-1.274 1.34-2.96 2.01-5.06 2.01-2.523 0-4.593-.891-6.208-2.674-1.616-1.782-2.423-4.097-2.423-6.944 0-2.871.807-5.198 2.423-6.98 1.616-1.783 3.685-2.674 6.209-2.674 2.099 0 3.785.67 5.059 2.01V5.131h7.111v18.196zm-8.049-6.496c.625-.694.938-1.556.938-2.584 0-1.029-.313-1.896-.938-2.602s-1.42-1.059-2.388-1.059c-.967 0-1.75.353-2.352 1.059-.602.705-.902 1.573-.902 2.602s.3 1.89.902 2.584c.601.694 1.385 1.04 2.352 1.04.967 0 1.763-.346 2.388-1.04zM14.93 22.538c-1.652.885-3.385 1.328-5.201 1.328-2.359 0-4.163-.64-5.413-1.92-1.25-1.28-1.875-3.057-1.875-5.33v-5.885H0V5.132h2.441V0h7.111v5.132h4.458v5.599H9.552v4.988c0 1.316.672 1.974 2.017 1.974.825 0 1.52-.167 2.087-.502l1.274 5.347z" fill="#1E1F22"/><path fill-rule="evenodd" clip-rule="evenodd" d="M78.786 16.832c.755.79 1.132 1.71 1.132 2.763 0 1.125-.371 2.064-1.114 2.817-.743.754-1.68 1.13-2.813 1.13-1.132 0-2.064-.376-2.795-1.13-.73-.753-1.096-1.692-1.096-2.817 0-1.076.371-2.004 1.114-2.781.743-.778 1.669-1.167 2.777-1.167 1.109 0 2.04.395 2.795 1.185z" fill="#82D220"/></svg>